<svg width="16" height="17" viewBox="0 0 16 17" fill="none" xmlns="http://www.w3.org/2000/svg">
<path d="M13.7636 2.05977C13.1709 1.46706 12.2128 1.46706 11.6201 2.05977L10.8055 2.87171L13.4551 5.52133L14.2698 4.70668C14.8625 4.11397 14.8625 3.15588 14.2698 2.56317L13.7636 2.05977ZM5.66593 8.01397C5.50084 8.17907 5.37363 8.38205 5.30056 8.60669L4.49945 11.01C4.42096 11.2428 4.48321 11.4999 4.65642 11.6758C4.82963 11.8517 5.08675 11.9113 5.32221 11.8328L7.72554 11.0317C7.94747 10.9586 8.15045 10.8314 8.31826 10.6663L12.8462 6.13569L10.1938 3.48337L5.66593 8.01397ZM3.5982 3.2046C2.16378 3.2046 1 4.36838 1 5.8028V12.7313C1 14.1657 2.16378 15.3295 3.5982 15.3295H10.5267C11.9611 15.3295 13.1249 14.1657 13.1249 12.7313V10.1331C13.1249 9.65408 12.7379 9.26706 12.2589 9.26706C11.7798 9.26706 11.3928 9.65408 11.3928 10.1331V12.7313C11.3928 13.2104 11.0058 13.5974 10.5267 13.5974H3.5982C3.11915 13.5974 2.73213 13.2104 2.73213 12.7313V5.8028C2.73213 5.32375 3.11915 4.93673 3.5982 4.93673H6.19639C6.67544 4.93673 7.06246 4.54971 7.06246 4.07067C7.06246 3.59162 6.67544 3.2046 6.19639 3.2046H3.5982Z" fill="#E9EDEF"/>
</svg>
