<svg width="16" height="17" viewBox="0 0 16 17" fill="none" xmlns="http://www.w3.org/2000/svg">
<g clip-path="url(#clip0_2113_6497)">
<path d="M14.6204 1.45398C14.8966 1.64535 15.0415 1.97614 14.9896 2.30693L13.2395 13.6796C13.1985 13.9447 13.0372 14.1771 12.802 14.3083C12.5669 14.4396 12.2852 14.456 12.0364 14.3521L8.76603 12.9934L6.89295 15.0191C6.64959 15.2843 6.26677 15.3718 5.93044 15.2406C5.59411 15.1094 5.37535 14.784 5.37535 14.4232V12.1377C5.37535 12.0283 5.41637 11.9245 5.4902 11.8452L10.0731 6.84505C10.2317 6.67282 10.2262 6.40764 10.0621 6.24361C9.89808 6.07958 9.63284 6.06865 9.46057 6.22447L3.89877 11.1645L1.48428 9.95612C1.19443 9.81123 1.00849 9.52145 1.00028 9.19886C0.992082 8.87627 1.16162 8.57555 1.44053 8.41425L13.6907 1.41571C13.9833 1.24894 14.3442 1.26535 14.6204 1.45398Z" fill="#E9EDEF"/>
</g>
<defs>
<clipPath id="clip0_2113_6497">
<rect width="16" height="16" fill="white" transform="translate(0 0.300781)"/>
</clipPath>
</defs>
</svg>
