<svg width="14" height="17" viewBox="0 0 14 17" fill="none" xmlns="http://www.w3.org/2000/svg">
<path d="M4.62143 1.56016C4.76607 1.26211 5.06339 1.07617 5.3875 1.07617H8.6125C8.93661 1.07617 9.23393 1.26211 9.37857 1.56016L9.57143 1.95117H12.1429C12.617 1.95117 13 2.34219 13 2.82617C13 3.31016 12.617 3.70117 12.1429 3.70117H1.85714C1.38304 3.70117 1 3.31016 1 2.82617C1 2.34219 1.38304 1.95117 1.85714 1.95117H4.42857L4.62143 1.56016ZM1.85714 4.57617H12.1429V13.3262C12.1429 14.2914 11.3741 15.0762 10.4286 15.0762H3.57143C2.62589 15.0762 1.85714 14.2914 1.85714 13.3262V4.57617ZM4.42857 6.32617C4.19286 6.32617 4 6.52305 4 6.76367V12.8887C4 13.1293 4.19286 13.3262 4.42857 13.3262C4.66429 13.3262 4.85714 13.1293 4.85714 12.8887V6.76367C4.85714 6.52305 4.66429 6.32617 4.42857 6.32617ZM7 6.32617C6.76429 6.32617 6.57143 6.52305 6.57143 6.76367V12.8887C6.57143 13.1293 6.76429 13.3262 7 13.3262C7.23571 13.3262 7.42857 13.1293 7.42857 12.8887V6.76367C7.42857 6.52305 7.23571 6.32617 7 6.32617ZM9.57143 6.32617C9.33571 6.32617 9.14286 6.52305 9.14286 6.76367V12.8887C9.14286 13.1293 9.33571 13.3262 9.57143 13.3262C9.80714 13.3262 10 13.1293 10 12.8887V6.76367C10 6.52305 9.80714 6.32617 9.57143 6.32617Z" fill="#E9EDEF"/>
</svg>
