<?xml version="1.0" encoding="UTF-8"?><svg xmlns="http://www.w3.org/2000/svg" viewBox="0 0 61.23 61.89"><g id="a"/><g id="b"><g id="c"><g><g><circle cx="45.88" cy="10.19" r="3.7"/><path d="M45.88,4.94c-.55,0-1-.45-1-1V1c0-.55,.45-1,1-1s1,.45,1,1V3.94c0,.55-.45,1-1,1Z"/><path d="M50.38,6.84c-.26,0-.52-.1-.72-.3-.38-.4-.37-1.03,.02-1.41l2.11-2.04c.4-.38,1.03-.38,1.41,.02,.38,.4,.37,1.03-.02,1.41l-2.11,2.04c-.19,.19-.44,.28-.69,.28Z"/><path d="M55.07,11.51s-.02,0-.03,0l-2.93-.1c-.55-.02-.98-.48-.97-1.03,.02-.55,.46-1.01,1.03-.96l2.93,.1c.55,.02,.98,.48,.97,1.03-.02,.54-.46,.97-1,.97Z"/><path d="M52.04,18.02c-.27,0-.55-.11-.74-.33l-1.97-2.18c-.37-.41-.34-1.04,.07-1.41s1.04-.34,1.41,.07l1.97,2.18c.37,.41,.34,1.04-.07,1.41-.19,.17-.43,.26-.67,.26Z"/><path d="M45.25,20.36s-.05,0-.07,0c-.55-.04-.97-.52-.93-1.07l.2-2.93c.04-.55,.51-.96,1.07-.93,.55,.04,.97,.52,.93,1.07l-.2,2.93c-.04,.53-.48,.93-1,.93Z"/><path d="M38.85,17.11c-.28,0-.57-.12-.77-.36-.36-.42-.3-1.05,.12-1.41l2.25-1.89c.42-.36,1.05-.3,1.41,.12,.36,.42,.3,1.05-.12,1.41l-2.25,1.89c-.19,.16-.42,.24-.64,.24Z"/><path d="M39.66,10.55s-.07,0-.1,0l-2.92-.3c-.55-.06-.95-.55-.89-1.1,.06-.55,.54-.93,1.1-.89l2.92,.3c.55,.06,.95,.55,.89,1.1-.05,.51-.49,.9-.99,.9Z"/><path d="M42.02,6.27c-.3,0-.59-.13-.79-.38l-1.81-2.31c-.34-.43-.27-1.06,.17-1.4,.43-.34,1.06-.27,1.4,.17l1.81,2.31c.34,.43,.27,1.06-.17,1.4-.18,.14-.4,.21-.62,.21Z"/></g><g><rect x="13.54" y="9.77" width="5.19" height="5.19" rx=".62" ry=".62"/><path d="M7.17,2.18l-1.24,1.24c-.4,.4-.4,1.06,0,1.46l4.99,4.99h2.62v-3.03L8.61,2.16c-.41-.39-1.05-.38-1.44,.02Z"/><path d="M26.34,3.41l-1.28-1.28c-.39-.39-1.03-.39-1.42,0l-5.01,5.01v2.62h3.03l4.7-4.95c.38-.4,.37-1.02-.02-1.41Z"/><path d="M25.1,22.54l1.24-1.24c.4-.4,.4-1.06,0-1.46l-4.99-4.99h-2.62v3.03l4.93,4.68c.41,.39,1.05,.38,1.44-.02Z"/><path d="M5.96,21.33l1.24,1.24c.4,.4,1.06,.4,1.46,0l4.99-4.99v-2.62h-3.03l-4.68,4.93c-.39,.41-.38,1.05,.02,1.44Z"/><path d="M21.76,34.23c0-.34-3.27-17.11-5.63-17.7-2.36,.6-5.63,17.36-5.63,17.7h3.72v-3.83h3.81v3.83h3.72Z"/></g><g><path d="M55.03,38.16v-6.31c0-.55-.45-1-1-1s-1,.45-1,1v5.36c-2.18-.88-4.6-1.37-7.15-1.37-2.38,0-4.64,.43-6.71,1.2v-5.2c0-.55-.45-1-1-1s-1,.45-1,1v6.08c-2.78,1.43-5.08,3.51-6.64,6.03h30.7c-1.47-2.38-3.62-4.38-6.2-5.8Z"/><path d="M59.95,26.19c-1.28-.07-2.58,.38-3.56,1.35s-1.43,2.28-1.35,3.56c1.28,.07,2.58-.38,3.56-1.35s1.43-2.28,1.35-3.56Z"/><path d="M52.8,31.11c.07-1.28-.38-2.58-1.35-3.56-.98-.98-2.28-1.43-3.56-1.35-.07,1.28,.38,2.58,1.35,3.56,.98,.98,2.28,1.43,3.56,1.35Z"/><path d="M44.2,26.19c-1.28-.07-2.58,.38-3.56,1.35s-1.43,2.28-1.35,3.56c1.28,.07,2.58-.38,3.56-1.35s1.43-2.28,1.35-3.56Z"/><path d="M37.05,31.11c.07-1.28-.38-2.58-1.35-3.56s-2.28-1.43-3.56-1.35c-.07,1.28,.38,2.58,1.35,3.56s2.28,1.43,3.56,1.35Z"/></g><path d="M59.8,55.45h-3.53v-3.28h3.53c.55,0,1-.45,1-1s-.45-1-1-1h-3.53v-3.45c0-.55-.45-1-1-1s-1,.45-1,1v3.45h-4.19v-3.45c0-.55-.45-1-1-1s-1,.45-1,1v3.45h-4.19v-3.45c0-.55-.45-1-1-1s-1,.45-1,1v3.45h-4.19v-3.45c0-.55-.45-1-1-1s-1,.45-1,1v3.45h-3.72c-.55,0-1,.45-1,1s.45,1,1,1h3.72v3.28h-3.72c-.55,0-1,.45-1,1s.45,1,1,1h3.72v3.45c0,.55,.45,1,1,1s1-.45,1-1v-3.45h4.19v3.45c0,.55,.45,1,1,1s1-.45,1-1v-3.45h4.19v3.45c0,.55,.45,1,1,1s1-.45,1-1v-3.45h4.19v3.45c0,.55,.45,1,1,1s1-.45,1-1v-3.45h3.53c.55,0,1-.45,1-1s-.45-1-1-1Zm-22.11,0v-3.28h4.19v3.28h-4.19Zm6.19,0v-3.28h4.19v3.28h-4.19Zm6.19,0v-3.28h4.19v3.28h-4.19Z"/><g><path d="M27.43,38.34v-2.45h-1.77v1.2h-2.22v-1.2h-1.77v2.45h-3.16v2.94h3.2v3.98c0,1.55,1.26,2.81,2.81,2.81s2.81-1.26,2.81-2.81v-3.98h3.2v-2.94h-3.1Z"/><path d="M24.03,49.04c-1.93-.25-3.32-2-3.32-3.95v-.9H10.24c-1.53,0-2.92,.58-3.97,1.52-.62,.56-1.24,1.12-1.9,1.62-1.61,1.23-3.27,2.79-4.24,4.55-.27,.48-.09,1.09,.39,1.36,.15,.08,.32,.12,.48,.12,.35,0,.69-.19,.88-.51,.57-1.03,1.45-2,2.41-2.86,0,.05,0,.1,0,.16v3h.19v8.17h3.06v-8.17h1.05v8.17h3.06v-8.17h8.81v8.17h3.06v-8.17h.93v8.17h3.06v-13.71c-.78,1.01-2.08,1.61-3.48,1.43Z"/></g></g></g></g></svg>