<svg width="40" height="40" viewBox="0 0 40 40" fill="none" xmlns="http://www.w3.org/2000/svg">
<g clip-path="url(#clip0_1427_14557)">
<mask id="mask0_1427_14557" style="mask-type:luminance" maskUnits="userSpaceOnUse" x="0" y="0" width="40" height="40">
<path d="M40 20C40 8.9543 31.0457 0 20 0C8.9543 0 0 8.9543 0 20C0 31.0457 8.9543 40 20 40C31.0457 40 40 31.0457 40 20Z" fill="white"/>
</mask>
<g mask="url(#mask0_1427_14557)">
<path d="M40 20C40 8.9543 31.0457 0 20 0C8.9543 0 0 8.9543 0 20C0 31.0457 8.9543 40 20 40C31.0457 40 40 31.0457 40 20Z" fill="#EAFFF0"/>
<path d="M6.48184 22.4737C6.48184 24.4959 5.7411 26.1404 4.82258 26.1404H4.53369V18.8145H4.82258C5.7411 18.8145 6.48184 20.4515 6.48184 22.4737Z" fill="#8D6E63"/>
<path d="M6.4816 22.4738C6.4816 24.496 5.74086 26.1405 4.82235 26.1405C4.72605 26.1405 4.62975 26.1256 4.53346 26.0812C3.75568 25.7849 3.16309 24.2812 3.16309 22.4738C3.16309 20.6664 3.75568 19.1627 4.53346 18.8664C4.62235 18.8294 4.72605 18.8071 4.82235 18.8071C5.74086 18.8071 6.4816 20.4442 6.4816 22.4664V22.4738Z" fill="#BCAAA4"/>
<path d="M31.6371 18.859V18.8145H22.6741C22.8519 18.3701 23.2741 17.7775 23.7334 17.1553L22.1186 16.5034C21.0593 17.2738 19.7704 18.0516 18.2445 18.8219H4.82227C5.74078 18.8219 6.48152 20.459 6.48152 22.4812C6.48152 24.5034 5.74078 26.1479 4.82227 26.1479H31.2445C31.2445 26.1479 31.2741 26.1479 31.2889 26.1479C31.3186 26.1479 31.3408 26.1479 31.3704 26.1479C32.2889 26.1479 33.0297 24.5034 33.0297 22.4812C33.0297 20.659 32.4223 19.1405 31.6297 18.8664L31.6371 18.859Z" fill="#8D6E63" stroke="#7F6158" stroke-width="0.1" stroke-miterlimit="10"/>
<path d="M9.45205 18.1554C9.45205 20.1776 8.71131 21.822 7.7928 21.822H7.50391V14.4961H7.7928C8.71131 14.4961 9.45205 16.1331 9.45205 18.1554Z" fill="#8D6E63"/>
<path d="M9.45182 18.1554C9.45182 20.1777 8.71108 21.8221 7.79256 21.8221C7.69626 21.8221 7.59997 21.8073 7.50367 21.7628C6.72589 21.4665 6.1333 19.9628 6.1333 18.1554C6.1333 16.348 6.72589 14.8443 7.50367 14.548C7.59256 14.511 7.69626 14.4888 7.79256 14.4888C8.71108 14.4888 9.45182 16.1258 9.45182 18.148V18.1554Z" fill="#BCAAA4"/>
<path d="M34.6073 14.5406V14.4962H25.6443C25.8221 14.0517 26.2443 13.4591 26.7036 12.8369L25.0888 12.1851C24.0295 12.9554 22.7406 13.7332 21.2147 14.5036H7.79248C8.711 14.5036 9.45174 16.1406 9.45174 18.1628C9.45174 20.1851 8.711 21.8295 7.79248 21.8295H34.2221C34.2221 21.8295 34.2517 21.8295 34.2666 21.8295C34.2962 21.8295 34.3184 21.8295 34.348 21.8295C35.2666 21.8295 36.0073 20.1851 36.0073 18.1628C36.0073 16.3406 35.3999 14.8221 34.6073 14.548V14.5406Z" fill="#8D6E63" stroke="#7F6158" stroke-width="0.1" stroke-miterlimit="10"/>
<path d="M10.2816 23.4146C10.2816 25.4369 9.5409 27.0813 8.62239 27.0813H8.3335V19.7554H8.62239C9.5409 19.7554 10.2816 21.3924 10.2816 23.4146Z" fill="#8D6E63"/>
<path d="M10.2814 23.4147C10.2814 25.4369 9.54067 27.0814 8.62215 27.0814C8.52585 27.0814 8.42956 27.0666 8.33326 27.0221C7.55548 26.7258 6.96289 25.2221 6.96289 23.4147C6.96289 21.6073 7.55548 20.1036 8.33326 19.8073C8.42215 19.7703 8.52585 19.748 8.62215 19.748C9.54067 19.748 10.2814 21.3851 10.2814 23.4073V23.4147Z" fill="#BCAAA4"/>
<path d="M35.4369 19.7999V19.7554H26.4739C26.6517 19.311 27.0739 18.7184 27.5332 18.0962L25.9184 17.4443C24.8591 18.2147 23.5702 18.9925 22.0443 19.7629H8.62207C9.54059 19.7629 10.2813 21.3999 10.2813 23.4221C10.2813 25.4443 9.54059 27.0888 8.62207 27.0888H35.0517C35.0517 27.0888 35.0813 27.0888 35.0961 27.0888C35.1258 27.0888 35.148 27.0888 35.1776 27.0888C36.0961 27.0888 36.8369 25.4443 36.8369 23.4221C36.8369 21.5999 36.2295 20.0814 35.4369 19.8073V19.7999Z" fill="#8D6E63" stroke="#7F6158" stroke-width="0.1" stroke-miterlimit="10"/>
</g>
</g>
<defs>
<clipPath id="clip0_1427_14557">
<rect width="40" height="40" fill="white"/>
</clipPath>
</defs>
</svg>
