<?xml version="1.0" encoding="UTF-8"?><svg xmlns="http://www.w3.org/2000/svg" viewBox="0 0 92.43 93.2"><defs><style>.d{fill:#020202;}</style></defs><g id="a"/><g id="b"><g id="c"><g><path class="d" d="M72.51,17.18l-19.91,16.28v14.51H0v45.23H92.43V33.46l-19.91-16.28ZM18.46,61.97H10.12v-4.26h8.34v4.26Zm11.91,0h-8.34v-4.26h8.34v4.26Zm11.91,0h-8.34v-4.26h8.34v4.26Zm11.91,0h-8.34v-4.26h8.34v4.26Zm12.02,18.34h-4.26v-8.34h4.26v8.34Zm0-13.96h-4.26v-8.34h4.26v8.34Zm0-13.96h-4.26v-8.34h4.26v8.34Zm8.09,27.91h-4.26v-8.34h4.26v8.34Zm0-13.96h-4.26v-8.34h4.26v8.34Zm0-13.96h-4.26v-8.34h4.26v8.34Zm8.09,27.91h-4.26v-8.34h4.26v8.34Zm0-13.96h-4.26v-8.34h4.26v8.34Zm0-13.96h-4.26v-8.34h4.26v8.34Z"/><path class="d" d="M11.76,47.99s2.05-28.9,1.88-29.75h13.95l1.88,29.75H11.76Z"/></g><path d="M21.76,15.84c-1.1,0-2-.9-2-2,0-.83,.51-1.54,1.23-1.85,.1-.06,.24-.16,.4-.27,7.49-5.05,13.93-5.77,19.2-2.15,2.65-2.71,8.91-7.85,16.39-5.29,1.04,.36,1.6,1.49,1.25,2.54s-1.49,1.61-2.54,1.25c-7.02-2.4-13.23,5.39-13.29,5.47-.34,.44-.85,.71-1.4,.76-.54,.04-1.1-.13-1.51-.5-6.02-5.4-13.42-.4-15.86,1.24-.76,.52-1.18,.8-1.87,.8Zm0-4h0Z"/><path d="M53.17,15.84c-1.06,0-1.95-.84-2-1.91-.05-1.1,.81-2.04,1.91-2.09,17.63-.77,21.21-10.11,21.35-10.51,.37-1.03,1.51-1.58,2.55-1.22,1.04,.36,1.59,1.48,1.23,2.52-.17,.5-4.42,12.3-24.96,13.2-.03,0-.06,0-.09,0Z"/></g></g></svg>