<svg width="40" height="40" viewBox="0 0 40 40" fill="none" xmlns="http://www.w3.org/2000/svg">
<g clip-path="url(#clip0_1427_14536)">
<mask id="mask0_1427_14536" style="mask-type:luminance" maskUnits="userSpaceOnUse" x="0" y="0" width="40" height="40">
<path d="M40 20C40 8.9543 31.0457 0 20 0C8.9543 0 0 8.9543 0 20C0 31.0457 8.9543 40 20 40C31.0457 40 40 31.0457 40 20Z" fill="white"/>
</mask>
<g mask="url(#mask0_1427_14536)">
<path d="M40 20C40 8.9543 31.0457 0 20 0C8.9543 0 0 8.9543 0 20C0 31.0457 8.9543 40 20 40C31.0457 40 40 31.0457 40 20Z" fill="#EAFFF0"/>
<path d="M25.6265 29.6884L26.6597 29.5417L25.3199 19.9163L25.3532 19.883L25.3132 19.8496L24.9733 17.39L23.7668 17.5566L24.0401 19.523L22.8002 20.9095L21.5404 19.503L21.8137 17.5499L20.6072 17.3833L20.2606 19.863L20.2406 19.883L20.2539 19.903L18.9141 29.5484L19.9673 29.695L20.0606 29.795L22.8002 27.1754L25.5399 29.795L25.6399 29.695L25.6265 29.6884ZM24.2534 21.1095L24.4933 22.8093L23.6135 21.8294L24.26 21.1095H24.2534ZM24.1134 24.2157L22.7936 25.4822L21.4737 24.2157L22.7936 22.7426L24.1134 24.2157ZM21.9737 21.8294L21.0738 22.8359L21.3138 21.0962L21.9737 21.8294ZM20.3805 27.7886L20.7405 25.209L21.907 26.3288L20.3805 27.7886ZM24.8266 25.2223L25.1799 27.7686L23.6734 26.3288L24.8266 25.2289V25.2223Z" fill="#90A4AE"/>
<path d="M13.2685 11.5903L32.5927 18.6694L31.3928 21.2557L11.8887 14.13L13.2685 11.5903Z" fill="#546E7A"/>
<path d="M13.3617 6.11768C13.3617 6.11768 4.58952 7.41084 9.12893 21.2557H10.9087C10.9087 21.2557 10.2821 17.4695 13.3551 11.6836V6.11768H13.3617Z" fill="#FFC107"/>
<path d="M13.3413 7.51775C8.86853 10.0308 8.61523 15.0234 10.5816 21.3226H9.11516C6.54883 12.7837 7.76867 7.52441 13.3479 6.05127V7.51775H13.3413Z" fill="#FFAB00"/>
<path d="M28.9065 30.5948C28.9065 30.5948 28.8466 30.5948 28.8132 30.5948C28.4333 30.5415 28.1666 30.1949 28.2133 29.8082L29.5931 19.5696C29.6465 19.1896 29.9997 18.923 30.3797 18.9697C30.7596 19.023 31.0263 19.3696 30.9796 19.7562L29.5998 29.9949C29.5531 30.3482 29.2532 30.6015 28.9065 30.6015V30.5948Z" fill="#37474F"/>
<path d="M10.5821 21.3228H9.3623V32.8079H10.5821V21.3228Z" fill="#90A4AE"/>
<path d="M17.8078 29.3345H28.5864C29.4729 29.3345 30.1862 30.0544 30.1862 30.9343V32.8074H16.208V30.9343C16.208 30.0477 16.9279 29.3345 17.8078 29.3345Z" fill="#546E7A"/>
</g>
</g>
<defs>
<clipPath id="clip0_1427_14536">
<rect width="40" height="40" fill="white"/>
</clipPath>
</defs>
</svg>
