<?xml version="1.0" encoding="UTF-8"?><svg xmlns="http://www.w3.org/2000/svg" viewBox="0 0 39.22 39.25"><defs><style>.d{fill:#040404;}.e{fill:#010101;}.f{fill:#fcfcfc;}</style></defs><g id="a"/><g id="b"><g id="c"><g><path class="e" d="M37.35,10.6c.05-3.99,1-9.59-4.07-10.6H6.73C2.39,.66,1.67,3.19,1.81,7.32c.16,5.2,0,10.39,0,15.59,.01,4.53-.27,9.08,.78,13.57,.48,2.02,1.05,2.69,3.1,2.73,1.93-.17,4.62,.72,5.67-1.44,.48-.94,1.24-1.23,2.23-1.23h12.08c1.01,0,1.73,.34,2.22,1.27,1.12,2.19,3.9,1.16,5.89,1.41,1.64,.02,2.5-.83,2.78-2.4,.55-3.07,.94-6.13,.9-9.27-.08-5.65-.17-11.3-.11-16.95ZM12.51,3.11c4.99,.03,9.98,.04,14.96,0,1.24,0,1.54,.55,1.54,1.66-.01,1.09-.44,1.5-1.52,1.49-2.52-.04-5.05-.01-7.57-.01s-4.93-.04-7.39,.01c-1.23,.03-1.53-.55-1.53-1.66,.01-1.09,.44-1.49,1.51-1.49Zm20.37,16.35c-.02,2.27-.88,3.1-3.23,3.12-3.44,.02-6.89,0-10.33,0v.05c-3.37,0-6.75,.02-10.13,0-2.12-.02-2.82-.7-2.84-2.79-.03-2.85-.04-5.71,0-8.56,.03-1.98,.74-2.68,2.75-2.68,7.01-.03,14.02-.03,21.04,0,2,0,2.71,.71,2.74,2.69,.04,2.72,.02,5.45,0,8.17Z"/><path class="f" d="M11.79,29.18c.05,1.41-1.26,2.78-2.68,2.8-1.41,.02-2.82-1.31-2.73-2.73,.15-3.51,5.11-3.56,5.41-.07Z"/><path class="f" d="M32.87,29.36c-.06,1.42-1.46,2.71-2.85,2.62-1.43-.09-2.75-1.52-2.55-2.9,.39-3.51,5.35-3.19,5.4,.28Z"/><path class="d" d="M1.56,9.28v9.41c-2.03-1.01-2.14-7.96,0-9.41Z"/><path class="d" d="M37.65,9.28v9.41c2.03-1.01,2.14-7.96,0-9.41Z"/></g></g></g></svg>