<svg width="24" height="24" viewBox="0 0 24 24" fill="none" xmlns="http://www.w3.org/2000/svg">
<path d="M1.36557 17.5803C1.63405 20.0898 3.65239 22.1081 6.16065 22.3877C8.0237 22.5954 9.93658 22.7737 11.8869 22.7737C13.8371 22.7737 15.75 22.5954 17.613 22.3877C20.1213 22.1081 22.1397 20.0898 22.4081 17.5803C22.6063 15.7278 22.7737 13.8259 22.7737 11.8869C22.7737 9.94785 22.6063 8.04594 22.4081 6.19342C22.1397 3.68395 20.1213 1.6656 17.613 1.38602C15.75 1.17836 13.8371 1 11.8869 1C9.93658 1 8.0237 1.17836 6.16065 1.38602C3.65239 1.6656 1.63405 3.68395 1.36557 6.19342C1.16737 8.04594 1 9.94785 1 11.8869C1 13.8259 1.16737 15.7278 1.36557 17.5803Z" fill="#C7FFD9" stroke="#00792C" stroke-width="1.7419"/>
<path d="M5.87036 11.5661H8.10881L10.1142 7.33936L12.9906 16.4345L15.6645 11.5661H17.903" stroke="#00792C" stroke-width="1.7419" stroke-linecap="round" stroke-linejoin="round"/>
</svg>
