<svg width="25" height="24" viewBox="0 0 25 24" fill="none" xmlns="http://www.w3.org/2000/svg">
<path d="M8.07926 11.6255L11.439 5.80616C11.439 5.80616 13.2348 6.36925 14.7233 7.22864C15.4678 7.65848 16.1865 8.19195 16.719 8.61785C17.306 9.08735 17.6994 9.74786 17.8915 10.4746L18.0231 10.9725C18.129 11.3728 18.3902 11.7145 18.7488 11.9215C19.4924 12.3509 19.7472 13.3017 19.3179 14.0452L19.154 14.3292C18.7247 15.0728 17.7739 15.3276 17.0302 14.8982C16.6716 14.6911 16.2451 14.6357 15.8455 14.7443L15.3329 14.8834C14.6173 15.0778 13.8599 15.0707 13.1655 14.8101C12.506 14.5626 11.6524 14.2071 10.9338 13.7922C9.53688 12.9857 8.07926 11.6255 8.07926 11.6255Z" fill="white" stroke="#00792C" stroke-width="1.7419" stroke-linejoin="round"/>
<path d="M3.11505 9.84278C1.05941 8.65589 0.355071 6.02724 1.54186 3.97155C2.72878 1.91582 5.35742 1.21148 7.41313 2.39835L8.17727 2.83952C8.54504 3.05185 9.0153 2.92585 9.22764 2.55808C9.6523 1.82254 10.5928 1.57051 11.3284 1.99519L11.5291 2.11107C12.3755 2.59973 12.6654 3.682 12.1768 4.52838L7.3416 12.9032C6.85293 13.7496 5.77072 14.0396 4.92421 13.5509L4.7235 13.4351C3.98799 13.0104 3.73598 12.0698 4.16061 11.3343C4.37299 10.9665 4.24699 10.4963 3.87917 10.284L3.11505 9.84278Z" fill="#C7FFD9" stroke="#00792C" stroke-width="1.7419" stroke-linejoin="round"/>
<path d="M19.2483 20.3873C19.2483 19.4032 20.5604 17.9271 21.2164 17.4351C21.8724 17.9271 23.1845 19.4032 23.1845 20.3873C23.1845 21.8634 22.2005 22.3554 21.2164 22.3554C20.2323 22.3554 19.2483 21.8634 19.2483 20.3873Z" fill="white" stroke="#00792C" stroke-width="1.7419" stroke-linecap="round" stroke-linejoin="round"/>
</svg>
