<svg width="24" height="24" viewBox="0 0 24 24" fill="none" xmlns="http://www.w3.org/2000/svg">
<path d="M11.7924 22.5842C17.7526 22.5842 22.5845 17.7524 22.5845 11.7921C22.5845 5.83181 17.7526 1 11.7924 1C5.83204 1 1.00024 5.83181 1.00024 11.7921C1.00024 17.7524 5.83204 22.5842 11.7924 22.5842Z" fill="#C7FFD9" stroke="#00792C" stroke-width="1.7419" stroke-linecap="round" stroke-linejoin="round"/>
<path d="M4.73566 15.9429C5.50627 15.9429 6.24531 15.6368 6.79021 15.0919C7.33511 14.547 7.64123 13.808 7.64123 13.0374V10.5469C7.64123 9.77628 7.94735 9.03722 8.49225 8.49232C9.03715 7.94742 9.7762 7.6413 10.5468 7.6413C11.3174 7.6413 12.0565 7.33518 12.6014 6.79028C13.1463 6.24538 13.4524 5.50634 13.4524 4.73573V1.12692C12.9112 1.04335 12.3567 1 11.7921 1C5.8318 1 1 5.8318 1 11.7921C1 13.263 1.29426 14.6652 1.82712 15.9429H4.73566Z" fill="white" stroke="#00792C" stroke-width="1.7419" stroke-linecap="round" stroke-linejoin="round"/>
<path d="M22.5832 11.6255C21.7523 11.1945 20.8307 10.9671 19.8946 10.9619H16.3581C15.5875 10.9619 14.8484 11.268 14.3035 11.8129C13.7586 12.3578 13.4525 13.0969 13.4525 13.8675C13.4525 14.6381 13.7586 15.3771 14.3035 15.922C14.8484 16.4669 15.5875 16.7731 16.3581 16.7731C16.9085 16.7731 17.4364 16.9917 17.8255 17.3809C18.2149 17.7701 18.4335 18.2981 18.4335 18.8485V20.2929H18.4418C20.9483 18.3298 22.5644 15.2821 22.5842 11.8563V11.7279C22.5841 11.6937 22.5837 11.6596 22.5832 11.6255Z" fill="white" stroke="#00792C" stroke-width="1.7419" stroke-linecap="round" stroke-linejoin="round"/>
</svg>
