<svg width="23" height="24" viewBox="0 0 23 24" fill="none" xmlns="http://www.w3.org/2000/svg">
<path d="M11.4515 2.24902C8.74685 2.24902 5.91834 2.24902 3.55796 2.69263C2.48027 2.89516 1.63729 3.72514 1.37851 4.79071C1.00012 6.34881 1.00012 7.53056 1.00012 10.0876C1.00012 12.6446 1.00012 13.8263 1.37851 15.3844C1.63729 16.45 2.48027 17.28 3.55796 17.4824C5.91834 17.9261 8.74685 17.9261 11.4515 17.9261C14.1562 17.9261 16.9847 17.9261 19.3451 17.4824C20.4228 17.28 21.2657 16.45 21.5246 15.3844C21.9029 13.8263 21.9029 12.6446 21.9029 10.0876C21.9029 7.53056 21.9029 6.34881 21.5246 4.79071C21.2657 3.72514 20.4228 2.89516 19.3451 2.69263C16.9847 2.24902 14.1562 2.24902 11.4515 2.24902Z" fill="#C7FFD9"/>
<path d="M6.22582 2.36768C5.2951 2.43317 4.39696 2.53481 3.55796 2.69249C2.48027 2.89504 1.63729 3.725 1.37851 4.79057C1.00012 6.34866 1.00012 7.53042 1.00012 10.0874C1.00012 12.6444 1.00012 13.8262 1.37851 15.3843C1.63729 16.4499 2.48027 17.2798 3.55796 17.4824C5.91834 17.9259 8.74685 17.9259 11.4515 17.9259C14.1562 17.9259 16.9847 17.9259 19.3451 17.4824C20.4228 17.2798 21.2657 16.4499 21.5246 15.3843C21.9029 13.8262 21.9029 12.6444 21.9029 10.0874C21.9029 7.53042 21.9029 6.34866 21.5246 4.79057C21.2657 3.725 20.4228 2.89504 19.3451 2.69249C18.506 2.53481 17.6079 2.43317 16.6772 2.36768" stroke="#00792C" stroke-width="1.7419" stroke-linecap="round" stroke-linejoin="round"/>
<path d="M7.96777 22.7163H14.9354" stroke="#00792C" stroke-width="1.7419" stroke-linecap="round" stroke-linejoin="round"/>
<path d="M11.4514 1V13.4178" stroke="#00792C" stroke-width="1.7419" stroke-linecap="round" stroke-linejoin="round"/>
<path d="M7.87634 10.3149C8.96276 11.7028 9.70272 12.3487 10.8055 13.1934C11.1957 13.4923 11.7076 13.4923 12.0978 13.1934C13.2005 12.3487 13.9405 11.7028 15.0269 10.3149" stroke="#00792C" stroke-width="1.7419" stroke-linecap="round" stroke-linejoin="round"/>
</svg>
