<svg width="22" height="22" viewBox="0 0 22 22" fill="none" xmlns="http://www.w3.org/2000/svg">
<g clip-path="url(#clip0_45_650)">
<path d="M9.94374 1.30987C8.90054 1.20895 7.82605 1.15625 6.7286 1.15625C5.63113 1.15625 4.55663 1.20895 3.51344 1.30988C2.3655 1.42094 1.48734 2.58445 1.43549 4.00116C1.3554 6.18921 1.31323 8.4606 1.31323 10.7902C1.31323 13.1197 1.3554 15.3911 1.43549 17.5792C1.48734 18.996 2.3655 20.1594 3.51344 20.2704C4.55663 20.3714 5.63113 20.4241 6.7286 20.4241C7.82605 20.4241 8.90054 20.3714 9.94374 20.2704C11.0917 20.1594 11.9698 18.996 12.0217 17.5792C12.0503 16.7985 12.074 16.0073 12.0927 15.2065V6.37392C12.074 5.57315 12.0503 4.78184 12.0217 4.00116C11.9698 2.58445 11.0917 1.42094 9.94374 1.30987Z" fill="#C7FFD9"/>
<path d="M12.0217 4.00116C11.9698 2.58445 11.0917 1.42094 9.94374 1.30987C8.90054 1.20895 7.82605 1.15625 6.7286 1.15625C5.63113 1.15625 4.55663 1.20895 3.51344 1.30988C2.3655 1.42094 1.48734 2.58445 1.43549 4.00116C1.3554 6.18921 1.31323 8.4606 1.31323 10.7902C1.31323 13.1197 1.3554 15.3911 1.43549 17.5792C1.48734 18.996 2.3655 20.1594 3.51344 20.2704C4.55663 20.3714 5.63113 20.4241 6.7286 20.4241C7.82605 20.4241 8.90054 20.3714 9.94374 20.2704C11.0917 20.1594 11.9698 18.996 12.0217 17.5792" stroke="#00792C" stroke-width="1.5" stroke-linecap="round"/>
<path d="M15.4564 15.3551C17.3982 13.7642 18.3685 12.7941 19.8822 10.9293C18.3685 9.06447 17.3982 8.09439 15.4564 6.50342" stroke="#00792C" stroke-width="1.5" stroke-linecap="round" stroke-linejoin="round"/>
<path d="M6.17175 10.9297H19.8329" stroke="#00792C" stroke-width="1.5" stroke-linecap="round" stroke-linejoin="round"/>
</g>
<defs>
<clipPath id="clip0_45_650">
<rect width="21.58" height="21.58" fill="white"/>
</clipPath>
</defs>
</svg>
